#!OML:ASF I:\Actors\actors\Patient Classification 1\Patient 1\Session 1\Subject1.ASF
:FULLY-SPECIFIED
:DEGREES
1022
root 0.375247 17.6256 8.61866 22.6855 5.96064 -8.04654
lowerback 6.81465 0.0231768 6.14772
upperback -5.71647 0.967176 2.57219
thorax -9.90621 0.148796 -0.842024
lowerneck -22.0757 -2.93829 1.1467
upperneck 17.448 -5.21188 3.59178
head 9.19713 -1.93361 0.316979
rclavicle -1.89591e-014 7.0817e-014
rhumerus 49.0792 34.4694 -49.7084
rradius 49.5465
rwrist -20.1746
rhand 28.1012 -78.6356
rfingers 7.12502
rthumb 51.992 -261.254
lclavicle -1.89591e-014 7.0817e-014
lhumerus 49.3967 -38.8763 49.8199
lradius 46.9336
lwrist 53.7762
lhand -11.9882 32.8601
lfingers 7.12502
lthumb 14.0684 62.3639
rfemur -18.2099 38.9101 11.5251
rtibia -0.970214
rfoot -23.2168 -46.2393
rtoes 20.0282
lfemur -11.0709 -37.6402 0.178201
ltibia -11.2824
lfoot -29.9071 42.0231
ltoes 38.2224
1023
root 0.371027 17.6269 8.61768 22.8387 5.89238 -7.80827
lowerback 6.61434 0.0442818 5.74226
upperback -5.73844 0.932198 2.55156
thorax -9.81286 0.161131 -0.632404
lowerneck -21.9635 -3.01157 1.04012
upperneck 17.3411 -5.28972 3.68037
head 9.14702 -1.97144 0.355556
rclavicle -1.00635e-015 -2.48481e-014
rhumerus 48.0549 35.0885 -50.3016
rradius 49.8965
rwrist -19.7262
rhand 27.783 -78.2595
rfingers 7.12502
rthumb 51.7031 -261.46
lclavicle -1.00635e-015 -2.48481e-014
lhumerus 48.3167 -39.4823 50.792
lradius 47.0156
lwrist 53.5158
lhand -12.7742 32.6533
lfingers 7.12502
lthumb 13.3108 62.2082
rfemur -18.5019 39.1872 10.9727
rtibia -0.939786
rfoot -23.6627 -46.4697
rtoes 20.4826
lfemur -11.2316 -37.7013 0.0623301
ltibia -11.3397
lfoot -30.262 41.8998
ltoes 38.6599
1024
root 0.374676 17.6206 8.60766 22.6886 6.1473 -8.28192
lowerback 7.27624 -0.054143 6.31867
upperback -6.05134 0.956628 2.68703
thorax -10.5623 0.115449 -0.807801
lowerneck -21.8254 -3.01909 1.11016
upperneck 17.6147 -5.30528 3.55249
head 9.21209 -1.98369 0.298338
rclavicle 9.44227e-016 3.16068e-014
rhumerus 46.6775 36.0765 -51.1785
rradius 50.1415
rwrist -19.3557
rhand 27.7864 -77.855
rfingers 7.12502
rthumb 51.7063 -261.867
lclavicle 9.44227e-016 3.16068e-014
lhumerus 46.7138 -40.4143 51.8976
lradius 47.1524
lwrist 53.3257
lhand -12.9154 32.7491
lfingers 7.12502
lthumb 13.1748 62.3128
rfemur -18.3275 39.1806 11.6878
rtibia -0.924129
rfoot -23.591 -46.5013
rtoes 20.3081
lfemur -11.2086 -37.8463 0.665799
ltibia -11.356
lfoot -30.0541 42.1345
ltoes 38.1762
1025
root 0.388788 17.6087 8.58914 22.2831 6.66317 -9.24469
lowerback 7.71103 -0.186009 7.7072
upperback -6.01679 1.01372 2.90634
thorax -10.79 0.0436776 -1.35254
lowerneck -21.7727 -3.06062 1.0768
upperneck 17.5738 -5.35548 3.58427
head 9.1912 -2.00759 0.308465
rclavicle -1.01629e-014 -5.44173e-014
rhumerus 45.8329 36.7205 -51.7182
rradius 50.192
rwrist -19.2454
rhand 27.6742 -77.2393
rfingers 7.12502
rthumb 51.6043 -262.423
lclavicle -1.01629e-014 -5.44173e-014
lhumerus 45.7316 -41.0583 52.5995
lradius 47.2227
lwrist 52.9191
lhand -13.1932 32.5723
lfingers 7.12502
lthumb 12.907 62.1532
rfemur -17.7152 38.6606 13.3963
rtibia -0.949784
rfoot -22.8558 -46.179
rtoes 19.5253
lfemur -11.0627 -38.1212 1.72732
ltibia -11.2952
lfoot -29.1412 42.7981
ltoes 36.5135
1026
root 0.379209 17.6179 8.59402 22.75 6.1958 -8.15901
lowerback 7.28801 -0.0845419 6.26761
upperback -6.11247 0.911359 2.65621
thorax -10.6404 0.0931727 -0.804218
lowerneck -21.7874 -3.11828 0.856311
upperneck 17.5055 -5.41488 3.82184
head 9.18501 -2.02442 0.417299
rclavicle -1.27346e-014 1.31198e-014
rhumerus 45.0144 37.3705 -52.1637
rradius 50.3206
rwrist -19.3276
rhand 27.0081 -76.5677
rfingers 7.12502
rthumb 50.9981 -262.75
lclavicle -1.27346e-014 1.31198e-014
lhumerus 44.7701 -41.6176 53.3992
lradius 47.2432
lwrist 52.7423
lhand -13.5631 32.6847
lfingers 7.12502
lthumb 12.5503 62.2878
rfemur -18.4194 38.8652 11.5257
rtibia -0.917794
rfoot -23.2478 -46.3483
rtoes 19.936
lfemur -11.3996 -38.1004 0.661634
ltibia -11.3065
lfoot -30.0411 42.3497
ltoes 37.7265
1027
root 0.377745 17.6189 8.5904 22.9056 6.0358 -7.74352
lowerback 7.11497 -0.0618341 5.77022
upperback -6.12933 0.856535 2.54134
thorax -10.5551 0.100303 -0.641883
lowerneck -21.737 -3.11725 0.791892
upperneck 17.3495 -5.41079 3.94436
head 9.12795 -2.01769 0.471775
rclavicle -2.16178e-014 7.50412e-015
rhumerus 44.2208 38.0128 -52.5868
rradius 50.5301
rwrist -19.3902
rhand 26.3586 -76.0842
rfingers 7.12502
rthumb 50.4055 -262.909
lclavicle -2.16178e-014 7.50412e-015
lhumerus 43.8742 -42.1131 54.1601
lradius 47.2034
lwrist 52.8432
lhand -13.8754 32.9898
lfingers 7.12502
lthumb 12.2492 62.6111
rfemur -18.6545 38.8587 10.8413
rtibia -0.912224
rfoot -23.334 -46.3434
rtoes 19.8987
lfemur -11.5512 -38.1802 0.261758
ltibia -11.2549
lfoot -30.4524 42.1924
ltoes 38.2118
1028
root 0.379104 17.6162 8.58347 22.9259 6.02544 -7.70766
lowerback 7.03427 -0.0586699 5.79211
upperback -6.1042 0.850028 2.48822
thorax -10.4775 0.0951551 -0.710563
lowerneck -21.6976 -3.10752 0.883235
upperneck 17.1906 -5.39944 3.86801
head 9.0606 -2.01989 0.433893
rclavicle -4.99446e-015 3.39425e-014
rhumerus 43.3685 38.509 -53.208
rradius 50.6815
rwrist -19.1577
rhand 26.1392 -75.6991
rfingers 7.12502
rthumb 50.2049 -263.186
lclavicle -4.99446e-015 3.39425e-014
lhumerus 42.9485 -42.5331 54.9044
lradius 47.1909
lwrist 52.5695
lhand -15.1177 31.7385
lfingers 7.12502
lthumb 11.0513 61.4276
rfemur -18.7252 39.0473 10.6958
rtibia -0.912602
rfoot -23.598 -46.4453
rtoes 20.1044
lfemur -11.578 -38.2686 0.255744
ltibia -11.2571
lfoot -30.6842 42.151
ltoes 38.4622
1029
root 0.379541 17.6132 8.57754 22.9523 5.98914 -7.69928
lowerback 7.17147 -0.0531454 5.65942
upperback -6.20101 0.865124 2.55392
thorax -10.6697 0.109926 -0.566852
lowerneck -21.7246 -3.08504 0.915355
upperneck 17.1966 -5.33303 3.65939
head 9.05788 -2.01018 0.366322
rclavicle -1.63997e-014 -1.41137e-014
rhumerus 42.3642 39.0897 -53.9167
rradius 50.8009
rwrist -18.8203
rhand 26.1265 -75.1757
rfingers 7.12502
rthumb 50.1934 -263.704
lclavicle -1.63997e-014 -1.41137e-014
lhumerus 41.6811 -42.9881 55.9274
lradius 47.2966
lwrist 52.3124
lhand -15.9657 31.1224
lfingers 7.12502
lthumb 10.2332 60.8535
rfemur -18.832 39.2894 10.5428
rtibia -0.895235
rfoot -24.0157 -46.5192
rtoes 20.6436
lfemur -11.5703 -38.3138 0.276201
ltibia -11.3195
lfoot -30.9332 42.0905
ltoes 38.7248
1030
root 0.379646 17.6111 8.57162 22.9595 5.93525 -7.71013
lowerback 7.18715 -0.0481967 5.60755
upperback -6.20075 0.869318 2.58031
thorax -10.6792 0.116877 -0.510218
lowerneck -21.6934 -3.05702 1.04642
upperneck 17.0034 -5.28067 3.45998
head 8.97433 -2.00533 0.286084
rclavicle 1.07468e-014 -2.48978e-014
rhumerus 41.5318 39.6206 -54.5013
rradius 50.8752
rwrist -19.2106
rhand 25.3857 -74.2563
rfingers 7.12502
rthumb 49.515 -264.27
lclavicle 1.07468e-014 -2.48978e-014
lhumerus 40.7839 -43.4557 56.5234
lradius 47.3746
lwrist 52.143
lhand -16.5734 30.872
lfingers 7.12502
lthumb 9.64699 60.6311
rfemur -18.883 39.2253 10.5281
rtibia -0.877169
rfoot -23.7955 -46.4651
rtoes 20.2647
lfemur -11.5438 -38.3394 0.300509
ltibia -11.3774
lfoot -31.0748 42.1042
ltoes 38.8924
